<?xml version="1.0" standalone="no"?>
<!DOCTYPE svg PUBLIC "-//W3C//DTD SVG 20010904//EN"
 "http://www.w3.org/TR/2001/REC-SVG-20010904/DTD/svg10.dtd">
<svg version="1.0" xmlns="http://www.w3.org/2000/svg"
 width="1280.000000pt" height="1280.000000pt" viewBox="0 0 1280.000000 1280.000000"
 preserveAspectRatio="xMidYMid meet">

<g transform="translate(0.000000,1280.000000) scale(0.100000,-0.100000)"
fill="#b7977f" stroke="none">
<path d="M5835 11748 c-393 -35 -753 -238 -994 -560 -24 -32 -45 -58 -48 -58
-2 0 -20 7 -41 16 -107 46 -311 103 -487 136 -149 29 -413 31 -532 5 -276 -61
-502 -182 -688 -371 -183 -185 -293 -384 -341 -616 -19 -91 -25 -287 -12 -400
l8 -65 -93 -47 c-295 -150 -511 -369 -653 -663 -110 -227 -148 -394 -149 -655
0 -228 26 -365 108 -563 l40 -98 -22 -37 c-44 -72 -130 -258 -155 -335 -14
-43 -38 -136 -52 -205 -23 -108 -27 -153 -27 -297 0 -98 5 -195 12 -230 7 -33
17 -82 23 -110 6 -27 24 -90 40 -140 104 -316 302 -536 618 -687 69 -33 131
-63 139 -67 7 -3 28 -47 46 -97 135 -372 449 -701 888 -929 307 -160 693 -279
1062 -327 130 -17 561 -17 675 0 278 41 530 119 739 230 176 93 274 165 424
311 l107 105 193 -38 c271 -52 281 -54 392 -67 55 -6 103 -13 106 -15 3 -2
105 -11 225 -20 265 -20 679 -23 864 -6 139 13 374 46 445 62 22 5 56 12 75
15 19 4 58 13 85 20 28 8 77 22 110 31 214 58 468 167 634 272 211 134 403
334 509 532 95 176 132 319 138 529 2 85 5 155 6 156 2 1 48 16 103 34 444
146 733 551 752 1056 9 245 -27 436 -125 661 -93 214 -218 392 -408 581 l-132
131 28 75 c67 172 96 439 71 644 -78 631 -571 1150 -1201 1264 -73 13 -109 24
-118 36 -7 10 -35 54 -63 97 -66 103 -236 277 -352 360 -154 110 -357 200
-561 248 -77 18 -123 22 -291 22 -220 1 -301 -12 -485 -76 -155 -55 -291 -128
-429 -231 l-74 -56 -82 76 c-46 41 -111 95 -146 120 -181 126 -449 221 -669
238 -47 3 -96 7 -110 9 -14 2 -70 -1 -125 -6z m355 -257 c148 -29 275 -72 415
-140 102 -50 206 -112 239 -142 5 -4 -9 -29 -31 -56 -57 -67 -143 -199 -173
-262 l-24 -53 22 -19 c13 -10 29 -16 37 -13 8 3 40 37 71 75 222 271 539 466
882 541 130 29 434 31 557 4 311 -68 596 -222 797 -430 26 -27 45 -53 42 -57
-3 -5 -22 -9 -43 -9 -45 0 -76 -28 -66 -59 7 -23 7 -23 154 -46 281 -45 551
-166 756 -340 344 -292 515 -680 515 -1169 0 -88 -5 -188 -11 -223 -10 -59
-13 -63 -38 -63 -30 0 -51 -16 -51 -39 0 -9 40 -59 88 -111 125 -136 160 -181
246 -308 135 -200 230 -416 276 -632 33 -152 33 -421 1 -565 -59 -258 -190
-470 -382 -616 -81 -61 -221 -139 -249 -139 -9 1 -34 41 -63 101 -51 106 -73
127 -122 115 -46 -12 -52 -46 -22 -123 83 -209 76 -455 -18 -690 -174 -436
-657 -749 -1375 -893 -197 -40 -342 -57 -620 -75 -603 -38 -1215 6 -1871 135
-121 24 -141 21 -137 -22 3 -35 16 -41 208 -99 l104 -32 -39 -34 c-129 -112
-392 -251 -601 -318 -461 -148 -939 -160 -1487 -39 -627 139 -1120 425 -1388
804 -69 98 -125 197 -116 206 4 4 55 1 114 -6 59 -7 141 -11 182 -8 62 3 76 7
92 27 11 13 19 33 19 46 0 40 -33 57 -151 76 -401 67 -766 324 -894 629 -99
234 -138 477 -116 708 35 363 167 678 385 920 36 40 66 75 66 78 0 20 -24 44
-44 44 -29 0 -185 -126 -246 -199 -24 -28 -45 -49 -48 -47 -2 3 -11 42 -20 88
-22 121 -21 444 2 563 61 311 169 540 374 785 94 113 312 310 342 310 5 0 16
-26 25 -57 24 -84 39 -103 80 -103 25 0 39 6 50 24 14 21 14 41 -1 215 -15
177 -15 203 0 332 18 164 57 290 122 406 165 289 424 490 749 580 95 26 111
28 315 28 217 0 291 -7 480 -46 147 -31 243 -57 387 -105 73 -24 139 -44 148
-44 19 0 35 40 24 61 -4 8 -44 35 -89 60 -136 74 -133 64 -48 135 235 197 521
326 783 354 117 13 315 4 435 -19z"/>
<path d="M4260 3924 c-117 -21 -223 -67 -325 -139 -131 -93 -231 -238 -286
-415 -33 -106 -34 -317 -1 -435 31 -112 90 -228 159 -309 91 -108 90 -106 59
-106 -54 0 -86 -68 -48 -103 41 -38 176 -74 307 -84 54 -4 117 -18 196 -44
131 -44 170 -48 199 -19 21 21 27 65 10 75 -21 13 -8 23 58 44 240 79 401 224
512 464 136 292 97 617 -95 809 -56 56 -90 78 -218 143 -197 101 -243 115
-387 120 -63 2 -126 2 -140 -1z m335 -176 c17 -9 55 -23 85 -33 133 -42 246
-170 279 -316 18 -76 13 -227 -9 -307 -40 -143 -135 -296 -232 -372 -65 -52
-181 -111 -273 -138 -70 -22 -205 -52 -229 -52 -27 0 -149 104 -207 177 -94
118 -131 206 -149 347 -19 156 16 311 99 439 93 142 251 244 416 268 74 11
186 4 220 -13z"/>
<path d="M2890 2164 c-167 -33 -316 -148 -386 -299 -102 -220 -61 -449 110
-619 108 -108 243 -166 386 -166 82 0 162 22 263 73 171 86 278 210 319 370
19 73 20 90 9 152 -13 83 -64 192 -120 256 -58 67 -161 133 -287 185 -91 37
-122 45 -189 49 -44 2 -91 1 -105 -1z m199 -199 c183 -97 283 -230 267 -358
-14 -107 -95 -232 -200 -309 -33 -23 -49 -28 -100 -28 -75 0 -144 21 -208 61
-57 37 -90 74 -126 143 -24 46 -27 61 -27 156 0 93 3 111 27 162 50 106 180
208 267 208 19 0 62 -15 100 -35z"/>
</g>
</svg>
